<svg width="360" height="194" fill="none" xmlns="http://www.w3.org/2000/svg"><path d="M359.09 1.408c-30.938 18.833-25.495 41.74-30.414 69.351-1.457 8.182-9.099 16.465-17.454 17.742-17.967 2.748-31.751-41.17-43.574-25.687-12.211 15.991-7.548 60.113-7.798 62.562-2.194 21.503-29.108 54.706-50.906 65.869-15.509 7.942-36.641-21.094-40.626-32.89-26.1-77.244-5.865-50.911-55.968-116.896-3.835-5.052-8.181-10.019-14.41-12.324-6.417-2.375-14.568 6.056-17.575 12.013-9.966 19.74-13.281 66.814-38.694 80.451-7.797 4.185-15.815 3.735-23.642 7.749-6.13 3.144-11.44 8.785-17.16 13.178" stroke="#fff" stroke-width="2"/></svg>