<svg width="195" height="275" fill="none" xmlns="http://www.w3.org/2000/svg"><path d="M112.427.195c-.003 25.018 21.657 25.912 41.989 34.862 6.025 2.652 9.024 9.565 5.877 15.552-6.766 12.875-49.976 13.455-43.132 24.69 7.068 11.602 45.858 17.317 47.755 17.983 16.658 5.848 30.548 31.009 28.806 48.21-1.239 12.239-35.851 20.864-47.599 21.214-76.93 2.293-45.003-6.262-124.704 14.764-6.101 1.609-12.39 3.585-17.427 7.391-5.188 3.921-2.324 11.212 1.084 14.478 11.294 10.821 48.51 22.602 46.994 42.782-.466 6.191-4.87 11.598-5.49 17.776-.486 4.838 1.503 9.619 2.255 14.428" stroke="#fff" stroke-width="2"/></svg>