<svg width="197" height="381" fill="none" xmlns="http://www.w3.org/2000/svg"><path d="M76.761.386c5.651 35.22 28.853 38.572 52.466 53.135 6.997 4.316 11.743 14.337 9.755 22.462-4.274 17.471-50.025 14.114-40.22 30.591 10.128 17.018 52.609 28.809 54.774 29.93 19.01 9.842 39.446 46.606 41.484 70.653 1.45 17.11-33.353 25.909-45.748 25.267-81.17-4.203-49.201-13.163-129.08 8.739-6.115 1.677-12.345 3.852-16.834 8.723-4.623 5.018.067 15.56 4.424 20.486C22.22 286.697 64.4 306.877 67.35 335.139c.905 8.672-2.549 15.859-1.811 24.495.577 6.765 3.77 13.687 5.655 20.531" stroke="#fff" stroke-width="2"/></svg>